<svg width="20" height="21" viewBox="0 0 20 21" fill="none" xmlns="http://www.w3.org/2000/svg">
<path d="M6.00179 20.2657C5.45162 20.2657 4.98082 20.07 4.58937 19.6785C4.19725 19.2864 4.00119 18.8153 4.00119 18.2651C4.00119 17.715 4.19725 17.2438 4.58937 16.8517C4.98082 16.4603 5.45162 16.2645 6.00179 16.2645C6.55195 16.2645 7.02276 16.4603 7.41421 16.8517C7.80632 17.2438 8.00238 17.715 8.00238 18.2651C8.00238 18.8153 7.80632 19.2864 7.41421 19.6785C7.02276 20.07 6.55195 20.2657 6.00179 20.2657ZM16.0048 20.2657C15.4546 20.2657 14.9838 20.07 14.5923 19.6785C14.2002 19.2864 14.0042 18.8153 14.0042 18.2651C14.0042 17.715 14.2002 17.2438 14.5923 16.8517C14.9838 16.4603 15.4546 16.2645 16.0048 16.2645C16.5549 16.2645 17.0261 16.4603 17.4182 16.8517C17.8096 17.2438 18.0054 17.715 18.0054 18.2651C18.0054 18.8153 17.8096 19.2864 17.4182 19.6785C17.0261 20.07 16.5549 20.2657 16.0048 20.2657ZM6.00179 15.2642C5.25156 15.2642 4.68473 14.9348 4.30128 14.2759C3.91783 13.6177 3.90116 12.9635 4.25127 12.3134L5.60167 9.86262L2.0006 2.26036H0.97529C0.691873 2.26036 0.45847 2.16433 0.275082 1.97228C0.0916939 1.78089 0 1.54348 0 1.26006C0 0.976646 0.0960286 0.738908 0.288086 0.546851C0.479476 0.355461 0.71688 0.259766 1.0003 0.259766H2.62578C2.80917 0.259766 2.98422 0.309781 3.15094 0.40981C3.31765 0.50984 3.44269 0.651549 3.52605 0.834937L4.20125 2.26036H18.9556C19.4058 2.26036 19.7142 2.42708 19.8809 2.76051C20.0476 3.09394 20.0393 3.44405 19.8559 3.81082L16.3049 10.2127C16.1215 10.5462 15.8797 10.8046 15.5796 10.988C15.2795 11.1713 14.9378 11.263 14.5543 11.263H7.10211L6.00179 13.2636H17.0301C17.3135 13.2636 17.5469 13.3593 17.7303 13.5507C17.9137 13.7428 18.0054 13.9805 18.0054 14.2639C18.0054 14.5474 17.9093 14.7848 17.7173 14.9761C17.5259 15.1682 17.2885 15.2642 17.0051 15.2642H6.00179Z" fill="white"/>
</svg>
