<svg width="20" height="20" viewBox="0 0 20 20" fill="none" xmlns="http://www.w3.org/2000/svg">
<path d="M18.9474 16.0494V17.1193C18.9474 18.2963 18 19.2593 16.8421 19.2593H2.10526C0.936842 19.2593 0 18.2963 0 17.1193V2.13992C0 0.962963 0.936842 0 2.10526 0H16.8421C18 0 18.9474 0.962963 18.9474 2.13992V3.20988H9.47368C8.30526 3.20988 7.36842 4.17284 7.36842 5.34979V13.9095C7.36842 15.0864 8.30526 16.0494 9.47368 16.0494H18.9474ZM9.47368 13.9095H20V5.34979H9.47368V13.9095ZM13.6842 11.2346C12.8105 11.2346 12.1053 10.5177 12.1053 9.62963C12.1053 8.74156 12.8105 8.02469 13.6842 8.02469C14.5579 8.02469 15.2632 8.74156 15.2632 9.62963C15.2632 10.5177 14.5579 11.2346 13.6842 11.2346Z" fill="white"/>
</svg>
